<!DOCTYPE svg PUBLIC "-//W3C//DTD SVG 1.1//EN" "http://www.w3.org/Graphics/SVG/1.1/DTD/svg11.dtd">
<!-- Uploaded to: SVG Repo, www.svgrepo.com, Transformed by: SVG Repo Mixer Tools -->
<svg height="800px" width="800px" version="1.1" id="Capa_1" xmlns="http://www.w3.org/2000/svg" xmlns:xlink="http://www.w3.org/1999/xlink" viewBox="0 0 280.112 280.112" xml:space="preserve" fill="#000000">
<g id="SVGRepo_bgCarrier" stroke-width="0"/>
<g id="SVGRepo_tracerCarrier" stroke-linecap="round" stroke-linejoin="round"/>
<g id="SVGRepo_iconCarrier"> <g> <path style="fill:#333;" d="M23.116,250.197h40.793c0,4.204,0,9.312,0,13.598c0,9.013,9.741,16.317,21.756,16.317h108.781 c12.015,0,21.756-7.305,21.756-16.317v-13.598h40.793c12.015,0,21.756-9.741,21.756-21.756V21.756 C278.752,9.741,269.011,0,256.996,0H23.116C11.101,0,1.36,9.741,1.36,21.756v206.684C1.36,240.456,11.101,250.197,23.116,250.197z M39.433,38.073h201.245v174.05H39.433C39.433,212.123,39.433,38.073,39.433,38.073z"/> </g> </g>
</svg>